<svg width="32" height="32" viewBox="0 0 32 32" fill="none" xmlns="http://www.w3.org/2000/svg">
<g id="icon_fav">
<circle id="Ellipse 13" cx="16" cy="16" r="15.5" stroke="white"/>
<path id="favorite" d="M16 24.515L14.695 23.345C13.18 21.98 11.9275 20.8025 10.9375 19.8125C9.9475 18.8225 9.16 17.9338 8.575 17.1463C7.99 16.3588 7.58125 15.635 7.34875 14.975C7.11625 14.315 7 13.64 7 12.95C7 11.54 7.4725 10.3625 8.4175 9.4175C9.3625 8.4725 10.54 8 11.95 8C12.73 8 13.4725 8.165 14.1775 8.495C14.8825 8.825 15.49 9.29 16 9.89C16.51 9.29 17.1175 8.825 17.8225 8.495C18.5275 8.165 19.27 8 20.05 8C21.46 8 22.6375 8.4725 23.5825 9.4175C24.5275 10.3625 25 11.54 25 12.95C25 13.64 24.8838 14.315 24.6513 14.975C24.4188 15.635 24.01 16.3588 23.425 17.1463C22.84 17.9338 22.0525 18.8225 21.0625 19.8125C20.0725 20.8025 18.82 21.98 17.305 23.345L16 24.515ZM16 22.085C17.44 20.795 18.625 19.6888 19.555 18.7663C20.485 17.8438 21.22 17.0413 21.76 16.3588C22.3 15.6763 22.675 15.0688 22.885 14.5363C23.095 14.0038 23.2 13.475 23.2 12.95C23.2 12.05 22.9 11.3 22.3 10.7C21.7 10.1 20.95 9.8 20.05 9.8C19.345 9.8 18.6925 9.99875 18.0925 10.3963C17.4925 10.7938 17.08 11.3 16.855 11.915H15.145C14.92 11.3 14.5075 10.7938 13.9075 10.3963C13.3075 9.99875 12.655 9.8 11.95 9.8C11.05 9.8 10.3 10.1 9.7 10.7C9.1 11.3 8.8 12.05 8.8 12.95C8.8 13.475 8.905 14.0038 9.115 14.5363C9.325 15.0688 9.7 15.6763 10.24 16.3588C10.78 17.0413 11.515 17.8438 12.445 18.7663C13.375 19.6888 14.56 20.795 16 22.085Z" fill="white"/>
</g>
</svg>
