<svg width="24" height="24" viewBox="0 0 24 24" fill="none" xmlns="http://www.w3.org/2000/svg">
<path d="M21.6511 7.20836C21.4196 6.33751 20.7398 5.65406 19.8763 5.42257C18.311 5 12.035 5 12.035 5C12.035 5 5.75899 5 4.19366 5.42257C3.33016 5.65406 2.65038 6.33751 2.41889 7.20836C2 8.78471 2 12.0697 2 12.0697C2 12.0697 2 15.3547 2.41889 16.931C2.65038 17.8019 3.33016 18.4559 4.19366 18.6874C5.75899 19.11 12.035 19.11 12.035 19.11C12.035 19.11 18.311 19.11 19.8763 18.6874C20.7398 18.4559 21.4196 17.7982 21.6511 16.931C22.07 15.3547 22.07 12.0697 22.07 12.0697C22.07 12.0697 22.07 8.78471 21.6511 7.20836ZM9.98464 15.0534V9.08602L15.2281 12.0697L9.98464 15.0534Z" fill="#7B7B7B"/>
</svg>
