<svg width="24" height="24" viewBox="0 0 24 24" fill="none" xmlns="http://www.w3.org/2000/svg">
<path d="M19.9453 8.05078C19.957 8.22656 19.957 8.40625 19.957 8.58203C19.957 14 15.832 20.2461 8.29297 20.2461C5.96875 20.2461 3.8125 19.5742 2 18.4062C2.32812 18.4453 2.64844 18.457 2.98828 18.457C4.90625 18.457 6.66797 17.8086 8.07812 16.707C6.27734 16.668 4.76562 15.4883 4.24609 13.8633C4.5 13.9023 4.75391 13.9258 5.01953 13.9258C5.38672 13.9258 5.75391 13.875 6.09766 13.7852C4.21875 13.4062 2.8125 11.7539 2.8125 9.76172V9.71094C3.35938 10.0156 3.99219 10.207 4.66406 10.2305C3.55859 9.49609 2.83594 8.23828 2.83594 6.81641C2.83594 6.05469 3.03906 5.35547 3.39453 4.74609C5.41406 7.23438 8.44531 8.85938 11.8477 9.03516C11.7852 8.73047 11.7461 8.41406 11.7461 8.09766C11.7461 5.83984 13.5742 4 15.8438 4C17.0234 4 18.0898 4.49609 18.8398 5.29297C19.7656 5.11719 20.6562 4.77344 21.4414 4.30469C21.1367 5.25781 20.4883 6.05469 19.6406 6.5625C20.4648 6.47266 21.2656 6.24609 22 5.92969C21.4414 6.74219 20.7422 7.46484 19.9453 8.05078Z" fill="#7B7B7B"/>
</svg>
