<svg width="24" height="24" viewBox="0 0 24 24" fill="none" xmlns="http://www.w3.org/2000/svg">
<path d="M10.6786 10.0223C10.4186 10.1961 10.1953 10.4195 10.0217 10.6796C9.84796 10.9397 9.72719 11.2314 9.66625 11.5382C9.54318 12.1577 9.67126 12.8008 10.0223 13.3259C10.3734 13.851 10.9187 14.2151 11.5382 14.3382C12.1577 14.4613 12.8008 14.3332 13.3259 13.9821C13.851 13.6311 14.2151 13.0858 14.3382 12.4663C14.4613 11.8467 14.3332 11.2037 13.9821 10.6786C13.6311 10.1535 13.0858 9.78932 12.4663 9.66625C11.8467 9.54318 11.2037 9.67126 10.6786 10.0223ZM17.0313 6.96875C16.7991 6.73661 16.5179 6.55357 16.2098 6.43304C15.4018 6.11607 13.6384 6.12946 12.5 6.14286C12.317 6.14286 12.1473 6.14732 12 6.14732C11.8527 6.14732 11.6786 6.14732 11.4911 6.14286C10.3527 6.12946 8.59821 6.11161 7.79018 6.43304C7.48214 6.55357 7.20536 6.73661 6.96875 6.96875C6.73214 7.20089 6.55357 7.48214 6.43304 7.79018C6.11607 8.59821 6.13393 10.3661 6.14286 11.5045C6.14286 11.6875 6.14732 11.8571 6.14732 12C6.14732 12.1429 6.14732 12.3125 6.14286 12.4955C6.13393 13.6339 6.11607 15.4018 6.43304 16.2098C6.55357 16.5179 6.73661 16.7946 6.96875 17.0313C7.20089 17.2679 7.48214 17.4464 7.79018 17.567C8.59821 17.8839 10.3616 17.8705 11.5 17.8571C11.683 17.8571 11.8527 17.8527 12 17.8527C12.1473 17.8527 12.3214 17.8527 12.5089 17.8571C13.6473 17.8705 15.4018 17.8884 16.2098 17.567C16.5179 17.4464 16.7946 17.2634 17.0313 17.0313C17.2679 16.7991 17.4464 16.5179 17.567 16.2098C17.8884 15.4062 17.8705 13.6473 17.8571 12.5045C17.8571 12.317 17.8527 12.1429 17.8527 11.9955C17.8527 11.8482 17.8527 11.6786 17.8571 11.4866C17.8705 10.3482 17.8884 8.58929 17.567 7.78125C17.4464 7.47321 17.2634 7.19643 17.0313 6.95982V6.96875ZM14.0357 8.95536C14.8432 9.49526 15.4031 10.3338 15.5924 11.2866C15.7816 12.2393 15.5845 13.2282 15.0446 14.0357C14.7773 14.4355 14.4338 14.7788 14.0338 15.0459C13.6339 15.313 13.1852 15.4987 12.7134 15.5924C11.7607 15.7816 10.7718 15.5845 9.96429 15.0446C9.1568 14.5053 8.59662 13.6673 8.40699 12.715C8.21736 11.7627 8.41381 10.774 8.95312 9.96652C9.49244 9.15903 10.3304 8.59885 11.2828 8.40922C12.2351 8.21959 13.2238 8.41604 14.0312 8.95536H14.0357ZM15.3393 8.89732C15.2009 8.80357 15.0893 8.66964 15.0223 8.51339C14.9554 8.35714 14.942 8.1875 14.9732 8.01786C15.0045 7.84821 15.0893 7.70089 15.2054 7.58036C15.3214 7.45982 15.4777 7.37946 15.6429 7.34821C15.808 7.31696 15.9821 7.33036 16.1384 7.39732C16.2946 7.46429 16.4286 7.57143 16.5223 7.70982C16.6161 7.84821 16.6652 8.01339 16.6652 8.18304C16.6652 8.29464 16.6429 8.40625 16.6027 8.50893C16.5625 8.61161 16.4955 8.70536 16.4196 8.78571C16.3438 8.86607 16.2455 8.92857 16.1429 8.97321C16.0402 9.01786 15.9286 9.04018 15.817 9.04018C15.6473 9.04018 15.4821 8.99107 15.3438 8.89732H15.3393ZM22 4.85714C22 3.28125 20.7188 2 19.1429 2H4.85714C3.28125 2 2 3.28125 2 4.85714V19.1429C2 20.7188 3.28125 22 4.85714 22H19.1429C20.7188 22 22 20.7188 22 19.1429V4.85714ZM17.9375 17.9375C17.1027 18.7723 16.0893 19.0357 14.9464 19.0938C13.7679 19.1607 10.2321 19.1607 9.05357 19.0938C7.91071 19.0357 6.89732 18.7723 6.0625 17.9375C5.22768 17.1027 4.96429 16.0893 4.91071 14.9464C4.84375 13.7679 4.84375 10.2321 4.91071 9.05357C4.96875 7.91071 5.22768 6.89732 6.0625 6.0625C6.89732 5.22768 7.91518 4.96429 9.05357 4.91071C10.2321 4.84375 13.7679 4.84375 14.9464 4.91071C16.0893 4.96875 17.1027 5.22768 17.9375 6.0625C18.7723 6.89732 19.0357 7.91071 19.0893 9.05357C19.1562 10.2277 19.1562 13.7589 19.0893 14.942C19.0312 16.0848 18.7723 17.0982 17.9375 17.933V17.9375Z" fill="#7B7B7B"/>
</svg>
