<svg width="9" height="10" viewBox="0 0 9 10" fill="none" xmlns="http://www.w3.org/2000/svg">
<g id="1">
<g id="elements">
<path id="Vector" d="M5.27744 1.14988L6.06935 2.74679C6.17734 2.96909 6.46531 3.18232 6.70828 3.22315L8.14362 3.46359C9.06152 3.61784 9.2775 4.28927 8.61607 4.95162L7.50019 6.07672C7.31121 6.26726 7.20772 6.63473 7.26622 6.89786L7.58568 8.29062C7.83765 9.39304 7.25722 9.81949 6.28982 9.24333L4.94447 8.44033C4.7015 8.29516 4.30104 8.29516 4.05357 8.44033L2.70822 9.24333C1.74533 9.81949 1.16039 9.3885 1.41236 8.29062L1.73183 6.89786C1.79032 6.63473 1.68683 6.26726 1.49785 6.07672L0.381977 4.95162C-0.27495 4.28927 -0.0634732 3.61784 0.854425 3.46359L2.28977 3.22315C2.52824 3.18232 2.81621 2.96909 2.9242 2.74679L3.71611 1.14988C4.14806 0.283373 4.84998 0.283373 5.27744 1.14988Z" fill="#111111"/>
</g>
</g>
</svg>
